<svg width="25" height="25" viewBox="0 0 25 25" fill="none" xmlns="http://www.w3.org/2000/svg">
<path d="M3.125 3.90625C2.69531 3.90625 2.34375 4.25781 2.34375 4.6875V12.5977C2.59277 12.5342 2.85645 12.5 3.125 12.5H21.875C22.1436 12.5 22.4072 12.5342 22.6562 12.5977V4.6875C22.6562 4.25781 22.3047 3.90625 21.875 3.90625H3.125ZM2.34375 15.625V20.3125C2.34375 20.7422 2.69531 21.0938 3.125 21.0938H21.875C22.3047 21.0938 22.6562 20.7422 22.6562 20.3125V15.625C22.6562 15.1953 22.3047 14.8438 21.875 14.8438H3.125C2.69531 14.8438 2.34375 15.1953 2.34375 15.625ZM0 15.625V4.6875C0 2.96387 1.40137 1.5625 3.125 1.5625H21.875C23.5986 1.5625 25 2.96387 25 4.6875V15.625V20.3125C25 22.0361 23.5986 23.4375 21.875 23.4375H3.125C1.40137 23.4375 0 22.0361 0 20.3125V15.625ZM13.6719 17.9688C13.6719 17.6579 13.7953 17.3599 14.0151 17.1401C14.2349 16.9203 14.5329 16.7969 14.8438 16.7969C15.1546 16.7969 15.4526 16.9203 15.6724 17.1401C15.8922 17.3599 16.0156 17.6579 16.0156 17.9688C16.0156 18.2796 15.8922 18.5776 15.6724 18.7974C15.4526 19.0172 15.1546 19.1406 14.8438 19.1406C14.5329 19.1406 14.2349 19.0172 14.0151 18.7974C13.7953 18.5776 13.6719 18.2796 13.6719 17.9688ZM19.5312 16.7969C19.8421 16.7969 20.1401 16.9203 20.3599 17.1401C20.5797 17.3599 20.7031 17.6579 20.7031 17.9688C20.7031 18.2796 20.5797 18.5776 20.3599 18.7974C20.1401 19.0172 19.8421 19.1406 19.5312 19.1406C19.2204 19.1406 18.9224 19.0172 18.7026 18.7974C18.4828 18.5776 18.3594 18.2796 18.3594 17.9688C18.3594 17.6579 18.4828 17.3599 18.7026 17.1401C18.9224 16.9203 19.2204 16.7969 19.5312 16.7969Z" fill="#5388AC"/>
</svg>
