<svg width="35" height="27" viewBox="0 0 35 27" fill="none" xmlns="http://www.w3.org/2000/svg">
<g clip-path="url(#clip0_2324_25925)">
<path d="M19.2375 3.79687C19.2375 3.23743 19.0123 2.70091 18.6114 2.30532C18.2106 1.90974 17.6669 1.6875 17.1 1.6875C16.5331 1.6875 15.9894 1.90974 15.5886 2.30532C15.1877 2.70091 14.9625 3.23743 14.9625 3.79687C14.9625 4.35632 15.1877 4.89284 15.5886 5.28843C15.9894 5.68401 16.5331 5.90625 17.1 5.90625C17.6669 5.90625 18.2106 5.68401 18.6114 5.28843C19.0123 4.89284 19.2375 4.35632 19.2375 3.79687ZM7.695 10.9687C8.2619 10.9687 8.80558 10.7465 9.20644 10.3509C9.6073 9.95534 9.8325 9.41882 9.8325 8.85937C9.8325 8.29993 9.6073 7.76341 9.20644 7.36782C8.80558 6.97224 8.2619 6.75 7.695 6.75C7.1281 6.75 6.58442 6.97224 6.18356 7.36782C5.7827 7.76341 5.5575 8.29993 5.5575 8.85937C5.5575 9.41882 5.7827 9.95534 6.18356 10.3509C6.58442 10.7465 7.1281 10.9687 7.695 10.9687ZM1.71 21.9375C0.764156 21.9375 0 22.6916 0 23.625C0 24.5584 0.764156 25.3125 1.71 25.3125H32.49C33.4358 25.3125 34.2 24.5584 34.2 23.625C34.2 22.6916 33.4358 21.9375 32.49 21.9375H1.71ZM26.505 10.9687C27.0719 10.9687 27.6156 10.7465 28.0164 10.3509C28.4173 9.95534 28.6425 9.41882 28.6425 8.85937C28.6425 8.29993 28.4173 7.76341 28.0164 7.36782C27.6156 6.97224 27.0719 6.75 26.505 6.75C25.9381 6.75 25.3944 6.97224 24.9936 7.36782C24.5927 7.76341 24.3675 8.29993 24.3675 8.85937C24.3675 9.41882 24.5927 9.95534 24.9936 10.3509C25.3944 10.7465 25.9381 10.9687 26.505 10.9687ZM10.6875 16.5322L12.125 19.1637C12.4616 19.7807 13.2365 20.0074 13.8617 19.6805C14.4869 19.3535 14.7167 18.5836 14.3854 17.9666L12.4456 14.407C12.5364 14.3174 12.6166 14.2172 12.6754 14.1012L14.1075 11.4697V14.3437C14.1075 15.2771 14.8717 16.0312 15.8175 16.0312H18.3825C19.3283 16.0312 20.0925 15.2771 20.0925 14.3437V11.4697L21.53 14.1012C21.5941 14.2172 21.6689 14.3174 21.7598 14.407L19.82 17.9666C19.4833 18.5836 19.7184 19.3482 20.3437 19.6805C20.9689 20.0127 21.7437 19.7807 22.0804 19.1637L23.5125 16.5322V18.5625C23.5125 19.4959 24.2767 20.25 25.2225 20.25H27.7875C28.7333 20.25 29.4975 19.4959 29.4975 18.5625V16.5322L30.935 19.1637C31.2716 19.7807 32.0465 20.0074 32.6717 19.6805C33.2969 19.3535 33.5267 18.5836 33.1954 17.9666L31.1701 14.2594C30.3525 12.7564 28.7601 11.8178 27.0287 11.8178H25.9813C25.1103 11.8178 24.2767 12.0551 23.5553 12.4822L21.7598 9.19687C20.9422 7.69394 19.3497 6.75527 17.6183 6.75527H16.5763C14.8449 6.75527 13.2578 7.69394 12.4349 9.19687L10.6394 12.4822C9.918 12.0551 9.08438 11.8178 8.21334 11.8178H7.17131C5.43994 11.8178 3.85284 12.7564 3.02991 14.2594L1.00997 17.9613C0.673312 18.5783 0.908438 19.343 1.53366 19.6752C2.15887 20.0074 2.93372 19.7754 3.27038 19.1584L4.7025 16.5322V18.5625C4.7025 19.4959 5.46666 20.25 6.4125 20.25H8.9775C9.92334 20.25 10.6875 19.4959 10.6875 18.5625V16.5322Z" fill="#5388AC"/>
</g>
<defs>
<clipPath id="clip0_2324_25925">
<rect width="34.2" height="27" fill="white"/>
</clipPath>
</defs>
</svg>
